<svg width="158" height="107" viewBox="0 0 158 107" fill="none" xmlns="http://www.w3.org/2000/svg">
<g style="mix-blend-mode:luminosity">
<path fill-rule="evenodd" clip-rule="evenodd" d="M93.6308 63.8951C86.5681 69.1339 76.331 71.929 67.517 71.929C55.1584 71.929 44.0325 67.329 35.6153 59.6785C34.9541 59.0768 35.5466 58.257 36.3401 58.7255C45.4239 64.0442 56.6556 67.2439 68.2577 67.2439C76.0823 67.2439 84.6899 65.6147 92.6045 62.234C93.8001 61.7229 94.8 63.0219 93.6308 63.8951Z" fill="#FF9900"/>
<path fill-rule="evenodd" clip-rule="evenodd" d="M96.5671 60.5144C95.6678 59.3537 90.5994 59.966 88.3244 60.2375C87.6314 60.3227 87.5257 59.7157 88.1499 59.2792C92.1865 56.4203 98.8103 57.2455 99.5826 58.2038C100.355 59.1674 99.3816 65.849 95.5883 69.038C95.0064 69.5279 94.4508 69.267 94.71 68.6174C95.5619 66.4773 97.4718 61.6804 96.5671 60.5144Z" fill="#FF9900"/>
<path fill-rule="evenodd" clip-rule="evenodd" d="M88.4832 39.0959V36.3169C88.4832 35.8963 88.8006 35.6141 89.1815 35.6141H101.545C101.942 35.6141 102.26 35.9015 102.26 36.3169V38.6966C102.254 39.0959 101.921 39.6177 101.329 40.4429L94.9218 49.648C97.3025 49.5896 99.8154 49.9462 101.974 51.1708C102.461 51.4476 102.593 51.8523 102.63 52.2515V55.217C102.63 55.6216 102.186 56.0954 101.72 55.8505C97.9161 53.8434 92.8638 53.6251 88.6578 55.8718C88.2293 56.1061 87.7796 55.6376 87.7796 55.233V52.4166C87.7796 51.9641 87.7848 51.1921 88.2345 50.5053L95.6571 39.7935H89.1973C88.8006 39.7935 88.4832 39.5113 88.4832 39.0959ZM43.3818 56.4361H39.6202C39.2605 56.4096 38.9748 56.1381 38.9483 55.7919V36.3648C38.9483 35.9761 39.271 35.6673 39.6731 35.6673H43.1807C43.5458 35.6832 43.8367 35.9655 43.8632 36.3167V38.8565H43.932C44.8472 36.4021 46.5666 35.2576 48.8839 35.2576C51.2381 35.2576 52.7089 36.4021 53.767 38.8565C54.677 36.4021 56.7456 35.2576 58.9623 35.2576C60.5388 35.2576 62.2635 35.9124 63.3163 37.3818C64.5067 39.0162 64.2633 41.3907 64.2633 43.4724L64.258 55.7335C64.258 56.1222 63.9353 56.4362 63.5333 56.4362H59.777C59.4014 56.4097 59.0998 56.1063 59.0998 55.7335V45.4369C59.0998 44.6169 59.1739 42.5724 58.994 41.7953C58.7137 40.4909 57.8725 40.1235 56.7825 40.1235C55.8726 40.1235 54.9203 40.7357 54.5341 41.7154C54.1479 42.6951 54.185 44.3348 54.185 45.4369V55.7333C54.185 56.122 53.8622 56.4361 53.4602 56.4361H49.7039C49.323 56.4096 49.0267 56.1061 49.0267 55.7333L49.0215 45.4369C49.0215 43.2699 49.3759 40.081 46.7042 40.081C44.0008 40.081 44.1066 43.1901 44.1066 45.4369V55.7333C44.1066 56.122 43.7839 56.4361 43.3818 56.4361ZM112.904 35.2574C118.486 35.2574 121.507 40.0809 121.507 46.2141C121.507 52.1397 118.168 56.8408 112.904 56.8408C107.423 56.8408 104.439 52.0173 104.439 46.0065C104.439 39.9585 107.46 35.2574 112.904 35.2574ZM112.936 39.2238C110.164 39.2238 109.989 43.0251 109.989 45.3942C109.989 47.7688 109.952 52.8371 112.904 52.8371C115.819 52.8371 115.957 48.7483 115.957 46.2567C115.957 44.6169 115.888 42.6577 115.396 41.1031C114.973 39.7508 114.131 39.2238 112.936 39.2238ZM128.744 56.4361H124.998C124.623 56.4096 124.321 56.1061 124.321 55.7333L124.316 36.3008C124.347 35.9442 124.66 35.6673 125.04 35.6673H128.527C128.855 35.6832 129.125 35.907 129.199 36.2103V39.1812H129.268C130.32 36.5245 131.796 35.2574 134.394 35.2574C136.082 35.2574 137.727 35.8696 138.785 37.5467C139.769 39.1012 139.769 41.7154 139.769 43.5948V55.8238C139.727 56.1646 139.415 56.4361 139.045 56.4361H135.272C134.928 56.4096 134.643 56.154 134.606 55.8238V45.2718C134.606 43.1475 134.849 40.0382 132.251 40.0382C131.336 40.0382 130.495 40.6559 130.077 41.5929C129.548 42.7802 129.479 43.9621 129.479 45.2719V55.7333C129.474 56.122 129.146 56.4361 128.744 56.4361ZM78.627 47.1565C78.627 48.6312 78.6641 49.8611 77.9233 51.1707C77.3256 52.2356 76.3733 52.8903 75.3204 52.8903C73.8762 52.8903 73.0297 51.783 73.0297 50.1485C73.0297 46.9222 75.9025 46.3366 78.627 46.3366V47.1565ZM82.4202 56.3829C82.1717 56.6065 81.8119 56.6225 81.5315 56.4734C80.283 55.4299 80.0554 54.9454 79.373 53.9499C77.3096 56.0688 75.8443 56.7024 73.1725 56.7024C70.0035 56.7024 67.5434 54.7378 67.5434 50.8035C67.5434 47.7315 69.194 45.6392 71.5536 44.6169C73.5958 43.7118 76.4473 43.5521 78.6271 43.3019V42.8121C78.6271 41.9123 78.6958 40.8475 78.1667 40.0703C77.7118 39.3729 76.8335 39.0853 76.0559 39.0853C74.6221 39.0853 73.3471 39.8253 73.035 41.3586C72.9715 41.6994 72.7228 42.0348 72.379 42.0508L68.7338 41.6568C68.427 41.5876 68.0831 41.3374 68.173 40.8635C69.0089 36.4128 73.0085 35.071 76.585 35.071C78.4155 35.071 80.8068 35.5609 82.2512 36.9558C84.0815 38.6755 83.907 40.9699 83.907 43.467V49.3659C83.907 51.1389 84.6372 51.916 85.3249 52.8744C85.5631 53.2151 85.6158 53.6251 85.3091 53.8806C84.5419 54.5248 83.1769 55.7227 82.4257 56.3936L82.4205 56.3829M29.3144 47.1565C29.3144 48.6312 29.3514 49.8611 28.6106 51.1707C28.0129 52.2356 27.0659 52.8903 26.0078 52.8903C24.5635 52.8903 23.7222 51.783 23.7222 50.1485C23.7222 46.9222 26.5951 46.3366 29.3144 46.3366V47.1565ZM33.1076 56.3829C32.859 56.6065 32.4993 56.6225 32.2189 56.4734C30.9703 55.4299 30.748 54.9454 30.0604 53.9499C27.997 56.0688 26.537 56.7024 23.8598 56.7024C20.6962 56.7024 18.2308 54.7378 18.2308 50.8035C18.2308 47.7315 19.8867 45.6392 22.2409 44.6169C24.2831 43.7118 27.1347 43.5521 29.3144 43.3019V42.8121C29.3144 41.9123 29.3831 40.8475 28.8593 40.0703C28.399 39.3729 27.5209 39.0853 26.7484 39.0853C25.3148 39.0853 24.0345 39.8253 23.7222 41.3586C23.6588 41.6994 23.4101 42.0348 23.0715 42.0508L19.4211 41.6568C19.1142 41.5876 18.7758 41.3374 18.8603 40.8635C19.7015 36.4128 23.6959 35.071 27.2723 35.071C29.1026 35.071 31.494 35.5609 32.9384 36.9558C34.7688 38.6755 34.5942 40.9699 34.5942 43.467V49.3659C34.5942 51.1389 35.3243 51.916 36.0121 52.8744C36.2555 53.2151 36.3084 53.6251 36.0015 53.8806C35.2344 54.5248 33.8695 55.7227 33.1183 56.3936L33.1076 56.3829Z" fill="black"/>
</g>
</svg>
