<svg width="161" height="107" viewBox="0 0 161 107" fill="none" xmlns="http://www.w3.org/2000/svg">
<g style="mix-blend-mode:luminosity">
<path d="M109.373 73.4237C108.291 75.9159 107.01 78.2099 105.526 80.3191C103.503 83.1943 101.847 85.1845 100.57 86.2898C98.5916 88.1038 96.4714 89.0329 94.2012 89.0858C92.5713 89.0858 90.6058 88.6234 88.3179 87.6855C86.0224 86.7521 83.9129 86.2897 81.9841 86.2897C79.9612 86.2897 77.7915 86.7521 75.471 87.6855C73.1468 88.6235 71.2745 89.1122 69.8429 89.1606C67.6659 89.2531 65.4959 88.2976 63.3299 86.2897C61.9473 85.0877 60.2182 83.027 58.1466 80.1077C55.924 76.9902 54.0968 73.3753 52.6653 69.2539C51.1322 64.8024 50.3636 60.4917 50.3636 56.3184C50.3636 51.5379 51.3999 47.4147 53.4753 43.9596C55.1065 41.1843 57.2765 38.995 59.9925 37.3879C62.7083 35.7807 65.643 34.9617 68.8032 34.9094C70.5325 34.9094 72.8 35.4426 75.618 36.4905C78.4281 37.542 80.2323 38.0752 81.0234 38.0752C81.6148 38.0752 83.6192 37.4517 87.0171 36.2087C90.2304 35.056 92.9423 34.5786 95.164 34.7667C101.184 35.251 105.707 37.6168 108.715 41.8791C103.331 45.1313 100.667 49.6863 100.72 55.5298C100.769 60.0813 102.425 63.8689 105.681 66.8763C107.156 68.2721 108.803 69.3509 110.636 70.117C110.239 71.2662 109.819 72.367 109.373 73.4237ZM95.566 19.2605C95.566 22.8279 94.2586 26.1589 91.6526 29.242C88.5078 32.9072 84.704 35.0251 80.5791 34.6909C80.5238 34.2424 80.4961 33.791 80.496 33.3391C80.496 29.9143 81.9916 26.2491 84.6475 23.2524C85.9734 21.735 87.6598 20.4734 89.7048 19.467C91.7454 18.4756 93.6755 17.9273 95.4909 17.8334C95.5439 18.3103 95.566 18.7873 95.566 19.2605Z" fill="black"/>
</g>
</svg>
