<svg width="24" height="24" viewBox="0 0 24 24" fill="none" xmlns="http://www.w3.org/2000/svg">
<path d="M12.2424 14.9097L19.7752 7.377C19.9739 7.17833 20.2078 7.0815 20.4769 7.0865C20.7463 7.09167 20.9803 7.19358 21.1789 7.39225C21.3776 7.59108 21.4769 7.82508 21.4769 8.09425C21.4769 8.36342 21.3776 8.59742 21.1789 8.79625L13.5232 16.4672C13.3424 16.6481 13.1398 16.7821 12.9154 16.8692C12.6911 16.9564 12.4668 17 12.2424 17C12.0181 17 11.7938 16.9564 11.5694 16.8692C11.3451 16.7821 11.1425 16.6481 10.9617 16.4672L3.29045 8.79625C3.09178 8.59742 2.99503 8.36083 3.0002 8.0865C3.00536 7.81217 3.10728 7.57567 3.30595 7.377C3.50461 7.17833 3.73861 7.079 4.00795 7.079C4.27711 7.079 4.51103 7.17833 4.7097 7.377L12.2424 14.9097Z" fill="black"/>
</svg>
