<svg width="1920" height="1153" viewBox="0 0 1920 1153" fill="none" xmlns="http://www.w3.org/2000/svg">
<g clip-path="url(#clip0_6115_133)">
<path d="M146.604 362.744L260.181 648.73C350.617 876.444 638.196 958.827 857.448 819.829L1257.38 566.289C1386.57 484.384 1549.02 475.962 1679.56 544.401L2206.24 820.528" stroke="#DCDCDC" stroke-width="1.33472"/>
<path d="M0.448184 356.877L130.535 632.126C239.429 862.532 532.567 934.635 735.915 781.031L1117.37 492.891C1241.01 399.495 1407.34 385.529 1544.83 457.001L2012.67 700.207" stroke="#FFD5D2" stroke-width="1.33472"/>
<path d="M101.254 422.078L244.107 715.8C347.349 928.079 623.476 995.751 831.666 859.797L1275.74 569.801C1401.2 487.87 1559.72 476.656 1689.67 540.517L2237.31 809.632" stroke="#4C00C3" stroke-width="1.33472"/>
</g>
<defs>
<clipPath id="clip0_6115_133">
<rect width="1920" height="1153" fill="white"/>
</clipPath>
</defs>
</svg>
