<svg width="158" height="107" viewBox="0 0 158 107" fill="none" xmlns="http://www.w3.org/2000/svg">
<g style="mix-blend-mode:luminosity">
<path d="M76.5413 44.7244L67.8201 51.476C66.9257 48.0997 64.0173 45.6235 60.4389 45.6235H54.1775V61.1525H60.4389C64.0171 61.1525 67.1476 58.6758 67.8185 55.3L76.5411 62.0515L85.2636 55.3V61.1525H95.1026V58.001H88.6183V45.6236H85.039V51.4741L76.7641 58.2276L74.9744 56.6513L79.0015 53.4998L83.2494 50.124L80.7902 48.0997L72.5153 54.6249L70.7266 53.0492L79.0015 46.7481L76.5404 44.7238L76.5413 44.7244ZM57.5325 48.773H60.2166C60.7757 48.773 61.3211 48.9013 61.8243 49.1334C62.3275 49.3656 62.7873 49.7025 63.1787 50.1245C63.5701 50.5466 63.8922 51.052 64.1159 51.6217C64.3395 52.1913 64.4645 52.8252 64.4645 53.5003C64.4643 54.1088 64.3566 54.7125 64.1464 55.2831C63.9402 55.8423 63.6399 56.3557 63.2624 56.7917C62.8851 57.2278 62.4313 57.5868 61.9176 57.8365C61.404 58.0862 60.8315 58.2257 60.2167 58.2257H57.5326L57.5325 48.773ZM106.285 58.002V61.1528H96.4454V45.6238H100.024V58.0012L106.285 58.002ZM79 18.1666C59.7669 18.1666 43.8889 34.1451 43.8889 53.5C43.8889 72.8548 59.5436 88.8333 79 88.8333C98.4565 88.8333 114.111 73.0795 114.111 53.5C114.111 33.9204 98.2331 18.1666 79 18.1666ZM79 21.7686C81.1804 21.7686 83.3078 21.9888 85.3624 22.4107C87.3929 22.8274 89.3773 23.4458 91.2866 24.2568C93.162 25.0543 94.956 26.0334 96.6432 27.1802C98.3176 28.3173 99.8797 29.6133 101.308 31.0505C102.736 32.4881 104.024 34.0602 105.154 35.7452C106.294 37.443 107.267 39.2484 108.059 41.1356C108.865 43.057 109.48 45.054 109.894 47.0974C110.313 49.165 110.532 51.3058 110.532 53.5C110.532 55.6942 110.313 57.835 109.894 59.9026C109.48 61.9459 108.865 63.943 108.059 65.8643C107.267 67.7516 106.294 69.5569 105.154 71.2548C104.024 72.9398 102.736 74.5118 101.308 75.9494C99.8797 77.3866 98.3175 78.6826 96.6432 79.8198C94.956 80.9665 93.162 81.9456 91.2866 82.7431C89.3773 83.554 87.3929 84.1724 85.3624 84.5892C83.3077 85.0112 81.1804 85.2314 79 85.2314C76.8196 85.2314 74.6923 85.0111 72.6377 84.5892C70.6066 84.1748 68.6218 83.5573 66.7127 82.7459C64.8374 81.9481 63.0435 80.9689 61.3563 79.8221C57.9995 77.5433 55.11 74.6356 52.8454 71.2577C51.706 69.5598 50.7331 67.7545 49.9404 65.8674C49.1346 63.9458 48.5201 61.9486 48.106 59.9049C47.6867 57.8379 47.4678 55.6973 47.4678 53.5027C47.4678 51.3081 47.6867 49.1675 48.106 47.1005C48.52 45.0568 49.1345 43.0596 49.9404 41.138C50.7331 39.2509 51.706 37.4456 52.8454 35.7477C53.9751 34.0626 55.263 32.4906 56.6914 31.0533C58.1197 29.6159 59.6818 28.3198 61.3563 27.1829C63.0436 26.0363 64.8374 25.0573 66.7127 24.2596C68.6222 23.4486 70.6069 22.8302 72.6377 22.4135C74.6917 21.9916 76.8188 21.7713 78.9996 21.7713L79 21.7686Z" fill="#007DB8"/>
</g>
</svg>
