<svg width="40" height="40" viewBox="0 0 40 40" fill="none" xmlns="http://www.w3.org/2000/svg">
<path fill-rule="evenodd" clip-rule="evenodd" d="M8.41984 7.78916C7.45872 8.03496 6.34692 8.61467 6.34692 8.87001C6.34692 9.05354 16.335 18.9544 16.8735 19.3048C17.4896 19.7056 17.8104 19.8538 18.5055 20.0585C19.0193 20.2098 19.2728 20.2423 19.9716 20.2459C21.1817 20.2523 22.1244 19.9738 23.1172 19.3168C23.6815 18.9432 33.5825 9.19187 33.6448 8.94816C33.677 8.8223 33.6451 8.74547 33.5189 8.64427C33.18 8.3727 32.2161 7.94873 31.5673 7.78596L30.9026 7.61914L19.9802 7.62255L9.05777 7.62597L8.41984 7.78916ZM4.31829 11.2236C4.19796 11.4822 4.03509 11.9602 3.9563 12.2858C3.81717 12.861 3.81309 13.0796 3.81259 19.9952C3.81203 27.7408 3.80386 27.564 4.21133 28.5734C4.80293 30.039 5.87488 31.1637 7.33775 31.8536C8.54912 32.4249 7.47316 32.3802 20.0068 32.3802C32.5404 32.3802 31.4645 32.4249 32.6758 31.8536C34.0601 31.2008 34.9769 30.2919 35.6393 28.9157C36.2019 27.7468 36.1625 28.3772 36.1847 20.2042C36.2042 13.0381 36.202 12.8927 36.0595 12.2987C35.8601 11.4675 35.5229 10.7535 35.3297 10.7535C35.2291 10.7535 33.5604 12.355 30.0416 15.8288C26.806 19.0229 24.7409 21.0094 24.4701 21.1881C23.5467 21.797 22.4094 22.2591 21.3415 22.459C20.7564 22.5686 19.2572 22.5686 18.6721 22.459C17.5718 22.253 16.3863 21.7637 15.5004 21.15C15.2296 20.9624 12.9589 18.7762 9.93679 15.7932C6.44282 12.3445 4.78449 10.7535 4.68394 10.7535C4.57114 10.7535 4.48629 10.8626 4.31829 11.2236Z" fill="#005EB8"/>
</svg>
