<svg width="158" height="107" viewBox="0 0 158 107" fill="none" xmlns="http://www.w3.org/2000/svg">
<g style="mix-blend-mode:luminosity">
<path d="M70.242 54.5569C70.242 60.3493 65.7391 64.6176 60.213 64.6176C54.6869 64.6176 50.184 60.3493 50.184 54.5569C50.184 48.7236 54.6869 44.4961 60.213 44.4961C65.7391 44.4961 70.242 48.7236 70.242 54.5569ZM65.8518 54.5569C65.8518 50.9372 63.242 48.4605 60.213 48.4605C57.184 48.4605 54.5742 50.9372 54.5742 54.5569C54.5742 58.1403 57.184 60.6532 60.213 60.6532C63.242 60.6532 65.8518 58.1357 65.8518 54.5569Z" fill="#EA4335"/>
<path d="M91.8778 54.5569C91.8778 60.3493 87.3749 64.6176 81.8487 64.6176C76.3226 64.6176 71.8197 60.3493 71.8197 54.5569C71.8197 48.7281 76.3226 44.4961 81.8487 44.4961C87.3749 44.4961 91.8778 48.7236 91.8778 54.5569ZM87.4875 54.5569C87.4875 50.9372 84.8777 48.4605 81.8487 48.4605C78.8197 48.4605 76.2099 50.9372 76.2099 54.5569C76.2099 58.1403 78.8197 60.6532 81.8487 60.6532C84.8777 60.6532 87.4875 58.1357 87.4875 54.5569Z" fill="#FBBC05"/>
<path d="M112.612 45.1039V63.1661C112.612 70.596 108.258 73.6306 103.11 73.6306C98.2647 73.6306 95.3484 70.3692 94.2486 67.7021L98.0709 66.1009C98.7515 67.7384 100.419 69.6707 103.106 69.6707C106.401 69.6707 108.443 67.625 108.443 63.7739V62.327H108.289C107.307 63.5471 105.414 64.6131 103.025 64.6131C98.0258 64.6131 93.4463 60.2313 93.4463 54.5931C93.4463 48.9141 98.0258 44.4961 103.025 44.4961C105.409 44.4961 107.302 45.562 108.289 46.7459H108.443V45.1084H112.612V45.1039ZM108.754 54.5931C108.754 51.0506 106.405 48.4605 103.417 48.4605C100.388 48.4605 97.8501 51.0506 97.8501 54.5931C97.8501 58.0994 100.388 60.6532 103.417 60.6532C106.405 60.6532 108.754 58.0994 108.754 54.5931Z" fill="#4285F4"/>
<path d="M119.486 34.517V64.0007H115.204V34.517H119.486Z" fill="#34A853"/>
<path d="M136.172 57.8681L139.58 60.1543C138.48 61.7917 135.83 64.6131 131.25 64.6131C125.571 64.6131 121.329 60.1951 121.329 54.5523C121.329 48.5694 125.607 44.4916 130.759 44.4916C135.947 44.4916 138.485 48.6465 139.314 50.8918L139.769 52.0349L126.405 57.605C127.428 59.6235 129.019 60.6532 131.25 60.6532C133.486 60.6532 135.036 59.5464 136.172 57.8681ZM125.684 54.2484L134.617 50.5153C134.126 49.2589 132.648 48.3834 130.908 48.3834C128.676 48.3834 125.571 50.3656 125.684 54.2484Z" fill="#EA4335"/>
<path d="M33.9752 51.9396V47.6713H48.2683C48.408 48.4152 48.4801 49.2951 48.4801 50.2477C48.4801 53.4501 47.6102 57.41 44.8065 60.2314C42.0796 63.089 38.5953 64.6131 33.9797 64.6131C25.4246 64.6131 18.2307 57.6005 18.2307 48.9912C18.2307 40.382 25.4246 33.3694 33.9797 33.3694C38.7125 33.3694 42.0841 35.2382 44.6172 37.674L41.6243 40.6859C39.8078 38.9713 37.3467 37.6377 33.9752 37.6377C27.7279 37.6377 22.8418 42.7044 22.8418 48.9912C22.8418 55.2781 27.7279 60.3448 33.9752 60.3448C38.0274 60.3448 40.3352 58.7073 41.8136 57.2195C43.0126 56.0129 43.8014 54.2892 44.1124 51.9351L33.9752 51.9396Z" fill="#4285F4"/>
</g>
</svg>
