<svg width="158" height="107" viewBox="0 0 158 107" fill="none" xmlns="http://www.w3.org/2000/svg">
<g style="mix-blend-mode:luminosity">
<path d="M57.1303 48.141V65.4459H51.6559V43.6945L62.9571 43.7053C67.7573 43.7053 69.3925 47.1119 69.3925 50.2062V65.4459H63.9284V50.2346C63.9284 48.9386 63.2616 48.141 61.6536 48.141H57.1303ZM94.3524 47.881C92.4814 47.881 91.0334 48.8491 90.4288 50.1631C90.0701 50.9521 89.9471 51.5565 89.905 52.5224H98.3264C98.2182 50.1631 97.1551 47.881 94.3524 47.881ZM89.905 56.2717C89.905 59.0891 91.6452 61.163 94.753 61.163C97.1708 61.163 98.3725 60.4887 99.7704 59.0892L103.151 62.3378C100.986 64.4882 98.7149 65.7947 94.7126 65.7947C89.4726 65.7947 84.458 62.9193 84.458 54.5391C84.458 47.3794 88.8362 43.3256 94.5897 43.3256C100.422 43.3256 103.791 48.0713 103.791 54.2874V56.2717H89.905ZM79.8372 65.4185C75.3776 65.4185 73.4855 62.2947 73.4855 59.2093V37.7679H78.951V43.6942H83.0712V48.141H78.951V58.8644C78.951 60.128 79.5442 60.8296 80.8478 60.8296H83.0712V65.4185H79.8372ZM46.7857 40.6886H41.274V35.4197H46.7857V40.6886ZM46.7996 65.6746C42.6723 65.2754 41.2679 62.756 41.2679 59.849L41.2744 43.6945H46.7996V65.6746ZM112.489 65.2096C108.371 64.8101 106.973 62.2947 106.973 59.3912V34.6703H112.489V65.2096ZM131.773 38.243C126.774 13.7159 79.4634 12.1631 48.969 30.8448V32.9075C79.4324 17.1526 122.637 17.2457 126.574 39.836C127.891 47.3057 123.708 55.0936 116.238 59.5699V65.4264C125.229 62.1163 134.45 51.3825 131.773 38.243ZM76.341 81.1548C55.2947 83.1128 33.3636 80.0385 30.2947 63.4885C28.7924 55.3302 32.4859 46.6818 37.3854 41.3097V38.4371C28.5648 46.2204 23.7782 56.0739 26.534 67.7171C30.0514 82.6471 48.874 91.1082 77.6038 88.2983C88.9709 87.1821 103.848 83.5037 114.192 77.7907V69.6748C104.806 75.299 89.2757 79.9497 76.341 81.1548Z" fill="#0071C5"/>
<path d="M118.866 36.3115C118.866 36.0425 118.71 35.9569 118.353 35.9569H118.008V36.7186C118.058 36.7186 118.308 36.7279 118.353 36.7279C118.71 36.7279 118.866 36.6078 118.866 36.3561V36.3115ZM119.403 38.2005H118.995C118.977 38.2001 118.96 38.1948 118.945 38.1852C118.93 38.1755 118.917 38.1619 118.91 38.1458L118.352 37.1954C118.343 37.176 118.294 37.153 118.275 37.153H118.025V38.0955C118.025 38.1458 117.991 38.2005 117.925 38.2005H117.555C117.509 38.2005 117.463 38.1458 117.463 38.0955V35.711C117.463 35.5729 117.516 35.5153 117.632 35.4974C117.763 35.4801 118.117 35.4686 118.308 35.4686C118.987 35.4686 119.397 35.67 119.397 36.3115V36.3561C119.397 36.7531 119.201 36.9628 118.896 37.0652L119.474 38.0484C119.478 38.0685 119.491 38.0955 119.491 38.1189C119.491 38.1574 119.469 38.2005 119.403 38.2005ZM118.433 35.0382C117.428 35.0382 116.615 35.8732 116.615 36.8793C116.616 37.3644 116.807 37.8295 117.148 38.1724C117.489 38.5153 117.951 38.7081 118.433 38.7083C119.433 38.7083 120.254 37.8862 120.254 36.879C120.254 35.8732 119.433 35.0382 118.433 35.0382ZM118.433 39.0873C118.145 39.0879 117.859 39.0311 117.593 38.9204C117.326 38.8097 117.084 38.6471 116.88 38.442C116.676 38.2368 116.514 37.9932 116.404 37.7251C116.294 37.4569 116.237 37.1695 116.237 36.8793C116.237 36.5891 116.294 36.3016 116.404 36.0334C116.514 35.7652 116.676 35.5215 116.88 35.3163C117.084 35.1111 117.326 34.9483 117.593 34.8374C117.859 34.7265 118.145 34.6696 118.433 34.6699C119.641 34.6699 120.635 35.6646 120.635 36.879C120.635 38.0955 119.641 39.0873 118.433 39.0873Z" fill="#0071C5"/>
</g>
</svg>
