<svg width="40" height="40" viewBox="0 0 40 40" fill="none" xmlns="http://www.w3.org/2000/svg">
<path fill-rule="evenodd" clip-rule="evenodd" d="M18.5347 4.63337C18.4061 4.6503 17.9666 4.73612 17.5581 4.82408C14.4143 5.50078 11.7414 7.35683 9.89886 10.1427C6.75207 14.9003 6.99771 21.4104 10.4941 25.918C10.7265 26.2176 12.0966 27.7087 13.5387 29.2316C14.9808 30.7544 16.8157 32.6932 17.6162 33.54C18.4802 34.454 19.1839 35.1408 19.3479 35.2302C19.7252 35.4359 20.2826 35.4359 20.66 35.2302C20.824 35.1408 21.5277 34.454 22.3917 33.54C23.1922 32.6932 25.0271 30.7544 26.4692 29.2316C27.9113 27.7087 29.2831 26.2165 29.5176 25.9154C33.0074 21.4359 33.2526 14.8955 30.109 10.1427C28.2412 7.31868 25.5864 5.49462 22.3056 4.78117C21.7602 4.66255 21.3812 4.63337 20.2043 4.61951C19.4146 4.61027 18.6632 4.6165 18.5347 4.63337ZM19.0355 9.31604C18.9621 9.3305 18.7367 9.37421 18.5347 9.41311C17.2008 9.66996 15.927 10.3525 14.8786 11.3722C13.9253 12.2994 13.2292 13.4949 12.8759 14.8116C12.7179 15.4005 12.7002 15.5835 12.7001 16.6376C12.6999 17.7043 12.7161 17.8689 12.8816 18.4784C12.9816 18.8466 13.2115 19.4533 13.3924 19.8267C14.3558 21.8145 16.0505 23.1917 18.2626 23.7844C18.826 23.9353 19.0328 23.9557 20.0039 23.9557C20.9751 23.9557 21.1818 23.9353 21.7453 23.7844C23.1131 23.4179 24.2197 22.791 25.1705 21.8439C26.6708 20.3495 27.433 18.3832 27.3299 16.2731C27.242 14.4727 26.5607 12.8737 25.3266 11.5715C23.8963 10.0623 22.014 9.26122 19.9465 9.2819C19.5189 9.28619 19.109 9.30152 19.0355 9.31604ZM18.7445 11.6154C16.4564 12.2354 14.8638 14.2761 14.8619 16.5902C14.8613 17.4451 15.0149 18.0982 15.408 18.9119C15.7087 19.5343 15.8189 19.6854 16.3894 20.2566C16.9384 20.8063 17.1244 20.9456 17.6664 21.2121C18.5657 21.6543 19.0013 21.7556 20.0039 21.7556C21.0066 21.7556 21.4422 21.6543 22.3414 21.2121C22.8852 20.9446 23.0669 20.8084 23.6132 20.2582C24.3153 19.5511 24.6676 18.9704 24.9565 18.0433C25.1612 17.3867 25.1778 15.9815 24.989 15.3028C24.5167 13.6057 23.261 12.2853 21.5734 11.7115C20.8335 11.46 19.4869 11.4142 18.7445 11.6154Z" fill="#005EB8"/>
</svg>
