<svg width="158" height="107" viewBox="0 0 158 107" fill="none" xmlns="http://www.w3.org/2000/svg">
<g style="mix-blend-mode:luminosity">
<path d="M68.7758 45.6746V61.3253H66.0757V49.0438H66.0397L61.2156 61.3253H59.4156L54.4835 49.0438H54.4475V61.3253H51.9634V45.6746H55.8515L60.3156 57.2677H60.3876L65.1037 45.6746H68.7758ZM71.0078 46.8701C71.0078 46.4354 71.1518 46.0731 71.4758 45.7833C71.7998 45.4934 72.1599 45.3485 72.5919 45.3485C73.0599 45.3485 73.4559 45.4934 73.7439 45.7833C74.0319 46.0731 74.2119 46.4354 74.2119 46.8701C74.2119 47.3049 74.0679 47.6671 73.7439 47.957C73.4199 48.2468 73.0599 48.3917 72.5919 48.3917C72.1239 48.3917 71.7638 48.2468 71.4758 47.957C71.1878 47.6309 71.0078 47.2686 71.0078 46.8701ZM73.9239 50.0945V61.3253H71.2958V50.0945H73.9239ZM81.8801 59.4052C82.2761 59.4052 82.7081 59.3327 83.1761 59.1154C83.6441 58.9342 84.0761 58.6806 84.4721 58.3908V60.8543C84.0401 61.1079 83.5721 61.2891 83.0321 61.3978C82.4921 61.5065 81.9161 61.5789 81.268 61.5789C79.612 61.5789 78.28 61.0717 77.272 60.0211C76.2279 58.9705 75.7239 57.63 75.7239 56.0359C75.7239 54.2245 76.2639 52.7391 77.308 51.5798C78.352 50.4205 79.828 49.8409 81.772 49.8409C82.2761 49.8409 82.7801 49.9133 83.2481 50.022C83.7521 50.1307 84.1481 50.3118 84.4361 50.4567V52.9927C84.0401 52.7029 83.6081 52.4493 83.2121 52.3044C82.7801 52.1595 82.3481 52.0508 81.916 52.0508C80.872 52.0508 80.044 52.3769 79.396 53.0652C78.748 53.7535 78.46 54.6593 78.46 55.8186C78.46 56.9417 78.784 57.8474 79.396 58.4633C80.008 59.0791 80.836 59.4052 81.8801 59.4052ZM91.9243 49.9133C92.1403 49.9133 92.3203 49.9133 92.5003 49.9495C92.6803 49.9858 92.8243 50.022 92.9323 50.0582V52.7391C92.7883 52.6305 92.6083 52.5218 92.3203 52.4493C92.0323 52.3769 91.7443 52.3044 91.3482 52.3044C90.7002 52.3044 90.1602 52.5942 89.7282 53.1377C89.2962 53.6811 89.0442 54.5143 89.0442 55.6737V61.3253H86.4161V50.0945H89.0442V51.8697H89.0802C89.3322 51.2538 89.6922 50.7828 90.1602 50.4205C90.6642 50.0945 91.2402 49.9133 91.9243 49.9133ZM93.0763 55.891C93.0763 54.0434 93.6163 52.558 94.6243 51.4711C95.6683 50.3843 97.1084 49.8409 98.9444 49.8409C100.672 49.8409 102.04 50.3481 103.012 51.3987C103.985 52.4493 104.489 53.8622 104.489 55.6374C104.489 57.4489 103.949 58.898 102.94 59.9849C101.896 61.0717 100.492 61.6152 98.6924 61.6152C96.9644 61.6152 95.5963 61.108 94.5883 60.0935C93.5803 59.0429 93.0763 57.63 93.0763 55.891ZM95.8123 55.7823C95.8123 56.9417 96.0643 57.8474 96.6044 58.4633C97.1444 59.0791 97.9004 59.4052 98.8724 59.4052C99.8084 59.4052 100.564 59.1154 101.068 58.4633C101.572 57.8474 101.824 56.9417 101.824 55.7099C101.824 54.5143 101.572 53.6086 101.068 52.9565C100.564 52.3406 99.8084 52.0146 98.9084 52.0146C97.9364 52.0146 97.2164 52.3406 96.6763 52.9927C96.0643 53.6811 95.8123 54.5868 95.8123 55.7823ZM108.413 53.0652C108.413 53.4275 108.521 53.7535 108.773 53.9709C109.025 54.1883 109.529 54.4419 110.357 54.7679C111.401 55.2027 112.157 55.6737 112.553 56.1809C112.985 56.7243 113.201 57.3402 113.201 58.101C113.201 59.1516 112.805 59.9849 111.977 60.637C111.185 61.2891 110.069 61.5789 108.701 61.5789C108.233 61.5789 107.729 61.5065 107.153 61.3978C106.577 61.2891 106.109 61.1442 105.713 60.963V58.3546C106.181 58.6806 106.721 58.9705 107.261 59.1516C107.801 59.3327 108.305 59.4414 108.773 59.4414C109.349 59.4414 109.817 59.369 110.069 59.1878C110.357 59.0067 110.501 58.7531 110.501 58.3546C110.501 57.9923 110.357 57.7025 110.069 57.4126C109.781 57.159 109.205 56.8692 108.413 56.5431C107.441 56.1446 106.757 55.6737 106.361 55.1665C105.965 54.6593 105.749 54.0071 105.749 53.2101C105.749 52.1957 106.145 51.3625 106.937 50.7103C107.729 50.0582 108.773 49.7322 110.033 49.7322C110.429 49.7322 110.861 49.7684 111.329 49.8771C111.797 49.9858 112.229 50.0945 112.553 50.2031V52.7754C112.193 52.558 111.797 52.3406 111.329 52.1595C110.861 51.9783 110.393 51.9059 109.961 51.9059C109.457 51.9059 109.061 52.0146 108.809 52.1957C108.557 52.4493 108.413 52.7029 108.413 53.0652ZM114.317 55.891C114.317 54.0434 114.857 52.558 115.865 51.4711C116.909 50.3843 118.349 49.8409 120.185 49.8409C121.913 49.8409 123.281 50.3481 124.253 51.3987C125.225 52.4493 125.729 53.8622 125.729 55.6374C125.729 57.4489 125.189 58.898 124.181 59.9849C123.137 61.0717 121.733 61.6152 119.933 61.6152C118.205 61.6152 116.837 61.108 115.829 60.0935C114.857 59.0429 114.317 57.63 114.317 55.891ZM117.053 55.7823C117.053 56.9417 117.305 57.8474 117.845 58.4633C118.385 59.0791 119.141 59.4052 120.113 59.4052C121.049 59.4052 121.805 59.1154 122.309 58.4633C122.813 57.8474 123.065 56.9417 123.065 55.7099C123.065 54.5143 122.813 53.6086 122.309 52.9565C121.805 52.3406 121.049 52.0146 120.149 52.0146C119.177 52.0146 118.457 52.3406 117.917 52.9927C117.341 53.6811 117.053 54.5868 117.053 55.7823ZM134.477 52.2682H130.553V61.3253H127.889V52.2682H126.017V50.0945H127.889V48.5366C127.889 47.3773 128.285 46.3991 129.041 45.6383C129.797 44.8775 130.769 44.5153 131.957 44.5153C132.281 44.5153 132.569 44.5515 132.821 44.5515C133.073 44.5515 133.289 44.6239 133.469 44.6964V46.9788C133.397 46.9426 133.217 46.8701 133.001 46.7977C132.785 46.7252 132.533 46.689 132.245 46.689C131.705 46.689 131.273 46.8701 130.985 47.1962C130.697 47.5222 130.553 48.0657 130.553 48.7178V50.0582H134.477V47.5222L137.105 46.7252V50.0582H139.769V52.2319H137.105V57.4851C137.105 58.1734 137.249 58.6444 137.465 58.9342C137.717 59.2241 138.113 59.369 138.653 59.369C138.797 59.369 138.977 59.3327 139.193 59.2603C139.409 59.1878 139.589 59.1154 139.733 59.0067V61.1804C139.553 61.2891 139.301 61.3615 138.905 61.434C138.509 61.5065 138.149 61.5427 137.753 61.5427C136.637 61.5427 135.809 61.2529 135.269 60.6732C134.729 60.0935 134.441 59.1878 134.441 57.9923L134.477 52.2682Z" fill="#737373"/>
<path d="M18.2308 40.4578H30.543V52.8479H18.2308V40.4578Z" fill="#F25022"/>
<path d="M31.8391 40.4578H44.1513V52.8479H31.8391V40.4578Z" fill="#7FBA00"/>
<path d="M18.2308 54.1521H30.543V66.5423H18.2308V54.1521Z" fill="#00A4EF"/>
<path d="M31.8391 54.1521H44.1513V66.5423H31.8391V54.1521Z" fill="#FFB900"/>
</g>
</svg>
