<svg width="40" height="40" viewBox="0 0 40 40" fill="none" xmlns="http://www.w3.org/2000/svg">
<rect width="40" height="40" rx="20" fill="#1379FF"/>
<path d="M11.6841 28.1078C11.1379 28.1078 10.6757 27.9186 10.2973 27.5403C9.91893 27.1619 9.72974 26.6996 9.72974 26.1535V13.8459C9.72974 13.2998 9.91893 12.8375 10.2973 12.4592C10.6757 12.0808 11.1379 11.8916 11.6841 11.8916H28.316C28.8621 11.8916 29.3243 12.0808 29.7027 12.4592C30.0811 12.8375 30.2703 13.2998 30.2703 13.8459V26.1535C30.2703 26.6996 30.0811 27.1619 29.7027 27.5403C29.3243 27.9186 28.8621 28.1078 28.316 28.1078H11.6841ZM28.6487 15.0724L20.526 20.2721C20.4429 20.3192 20.3569 20.3562 20.2681 20.3832C20.1795 20.4103 20.0901 20.4238 20 20.4238C19.9099 20.4238 19.8205 20.4103 19.7319 20.3832C19.6431 20.3562 19.5571 20.3192 19.4741 20.2721L11.3514 15.0724V26.1535C11.3514 26.2506 11.3825 26.3303 11.4449 26.3927C11.5072 26.455 11.5869 26.4862 11.6841 26.4862H28.316C28.4131 26.4862 28.4928 26.455 28.5551 26.3927C28.6175 26.3303 28.6487 26.2506 28.6487 26.1535V15.0724ZM20 18.9186L28.4824 13.5132H11.5176L20 18.9186ZM11.3514 15.3219V14.0859V14.1181V14.0838V15.3219Z" fill="white"/>
</svg>
