<svg width="40" height="40" viewBox="0 0 40 40" fill="none" xmlns="http://www.w3.org/2000/svg">
<rect width="40" height="40" rx="20" fill="#1379FF"/>
<path d="M28.0432 29.1889C26.006 29.1889 23.9592 28.7152 21.903 27.7678C19.8469 26.8205 17.9578 25.4841 16.2357 23.7587C14.5137 22.0331 13.179 20.1439 12.2316 18.0911C11.2842 16.0385 10.8105 13.9935 10.8105 11.9562C10.8105 11.6288 10.9187 11.356 11.1349 11.1378C11.3511 10.9196 11.6214 10.8105 11.9457 10.8105H15.4716C15.7446 10.8105 15.9854 10.8996 16.1941 11.0778C16.4027 11.2559 16.5354 11.4759 16.5922 11.7378L17.2119 14.9187C17.2548 15.2138 17.2458 15.4674 17.1849 15.6795C17.1238 15.8915 17.0142 16.0696 16.8562 16.2138L14.3595 18.6443C14.7613 19.3802 15.2204 20.0763 15.7368 20.7327C16.253 21.3889 16.8119 22.0157 17.4135 22.613C18.0067 23.2063 18.6373 23.7573 19.3054 24.266C19.9735 24.7746 20.695 25.2479 21.4697 25.686L23.8957 23.2389C24.0649 23.0629 24.2697 22.9395 24.5103 22.8687C24.7506 22.798 25.0005 22.7807 25.2597 22.8168L28.2616 23.4281C28.5346 23.5002 28.7574 23.6395 28.93 23.846C29.1026 24.0524 29.1889 24.2867 29.1889 24.5487V28.0538C29.1889 28.3781 29.0798 28.6484 28.8616 28.8646C28.6434 29.0808 28.3706 29.1889 28.0432 29.1889ZM13.5922 17.11L15.5216 15.2638C15.5562 15.236 15.5787 15.1979 15.5892 15.1495C15.5996 15.101 15.5979 15.056 15.5841 15.0143L15.1141 12.5984C15.1002 12.5431 15.076 12.5015 15.0414 12.4738C15.0068 12.446 14.9617 12.4322 14.9062 12.4322H12.5943C12.5527 12.4322 12.518 12.446 12.4903 12.4738C12.4627 12.5015 12.4489 12.5362 12.4489 12.5778C12.5042 13.3166 12.6251 14.067 12.8116 14.8292C12.9979 15.5915 13.2581 16.3518 13.5922 17.11ZM22.9976 26.453C23.7141 26.787 24.4615 27.0424 25.2397 27.2192C26.0181 27.3958 26.7454 27.5007 27.4216 27.5341C27.4632 27.5341 27.4979 27.5202 27.5257 27.4924C27.5534 27.4647 27.5673 27.43 27.5673 27.3884V25.1141C27.5673 25.0586 27.5534 25.0135 27.5257 24.9789C27.4979 24.9443 27.4564 24.9201 27.4011 24.9062L25.1308 24.4446C25.0892 24.4307 25.0528 24.429 25.0216 24.4395C24.9905 24.4499 24.9575 24.4724 24.9227 24.507L22.9976 26.453Z" fill="white"/>
</svg>
