<svg width="19" height="10" viewBox="0 0 19 10" fill="none" xmlns="http://www.w3.org/2000/svg">
<path d="M9.24245 7.83065L16.7752 0.297897C16.9739 0.0992308 17.2078 0.00239754 17.4769 0.00739765C17.7463 0.0125637 17.9803 0.11448 18.1789 0.313147C18.3776 0.51198 18.4769 0.74598 18.4769 1.01515C18.4769 1.28431 18.3776 1.51831 18.1789 1.71715L10.5232 9.38815C10.3424 9.56898 10.1398 9.70298 9.91545 9.79015C9.69111 9.87731 9.46678 9.9209 9.24245 9.9209C9.01811 9.9209 8.79378 9.87731 8.56945 9.79015C8.34511 9.70298 8.14253 9.56898 7.9617 9.38815L0.290446 1.71715C0.0917794 1.51831 -0.00497022 1.28173 0.000196444 1.0074C0.00536311 0.733064 0.107279 0.496564 0.305946 0.297897C0.504613 0.0992308 0.738613 -0.000102043 1.00795 -0.000102043C1.27711 -0.000102043 1.51103 0.0992308 1.7097 0.297897L9.24245 7.83065Z" fill="black"/>
</svg>
